# xmcd
#
# Track frame offsets: 
#        150
#        16602
#        35519
#        56753
#        72327
#        90664
#        104952
#        117368
#        133891
#        148605
#        164351
#        185040
#        203150
#        222734
#        237851
#
# Disc length: 3372 seconds
#
# Revision: 0
# Processed by: cddbd v1.5.2PL0 Copyright (c) Steve Scherf et al.
# Submitted via: ExactAudioCopy v0.99pb4
#
DISCID=ea0d2a0f
DTITLE=Sance - Hrajeme dal
DYEAR=2007
DGENRE=Pop
TTITLE0=Zrcadlo
TTITLE1=Tyden v davu
TTITLE2=Sama
TTITLE3=Ty presto spis
TTITLE4=Blizenci
TTITLE5=Sedm noci
TTITLE6=Naruc plna snu
TTITLE7=Myslenky
TTITLE8=Muza
TTITLE9=Davam ti srdce svy
TTITLE10=Pulnocni dama
TTITLE11=Od kvetna do ledna
TTITLE12=Mlade sny
TTITLE13=Odplata
TTITLE14=Hrajeme dal
EXTD=
EXTT0=
EXTT1=
EXTT2=
EXTT3=
EXTT4=
EXTT5=
EXTT6=
EXTT7=
EXTT8=
EXTT9=
EXTT10=
EXTT11=
EXTT12=
EXTT13=
EXTT14=
PLAYORDER=
